<?xml version="1.0" encoding="UTF-8" standalone="no"?>
<svg width="150px" height="173px" viewBox="0 0 150 173" version="1.1" xmlns="http://www.w3.org/2000/svg" xmlns:xlink="http://www.w3.org/1999/xlink" xmlns:sketch="http://www.bohemiancoding.com/sketch/ns">
    <!-- Generator: Sketch 3.2.2 (9983) - http://www.bohemiancoding.com/sketch -->
    <title>Group 4 + Group 5 + Rectangle 12</title>
    <desc>Created with Sketch.</desc>
    <defs></defs>
    <g id="Page-1" stroke="none" stroke-width="1" fill="none" fill-rule="evenodd" sketch:type="MSPage">
        <g id="Group-4-+-Group-5-+-Rectangle-12" sketch:type="MSLayerGroup">
            <g id="Group-4" transform="translate(112.000000, 86.500000) scale(-1, 1) translate(-112.000000, -86.500000) translate(74.000000, 0.000000)" sketch:type="MSShapeGroup">
                <path d="M75.1960281,17.7745844 L75.1960281,158.428881 L74.3641151,172.321148 C74.3641151,172.321148 70.5755093,174.671624 62.0765845,168.992745 C53.5776596,163.313866 52.1019648,152.558915 30.0369788,140.415245 C7.97199285,128.271576 2.51247063,127.164746 2.51247063,127.164746 C2.51247063,127.164746 -0.584916266,116.401062 1.0057872,102.442893 C2.86394706,86.1378365 5.51009322,83.0769443 7.652358,79.6079774 C14.6537949,68.2705585 21.5223606,45.0689788 21.5223606,36.3078792 C21.5223606,27.5467797 9.853457,0.902542686 16.7754381,0.902542686 C21.1210545,0.902542686 34.625184,9.39888701 54.376084,14.3495284 C66.0971156,17.2874514 72.1840275,17.4480746 75.1960281,17.7745844 Z" id="Rectangle-5" fill="#ECECEC"></path>
                <path d="M75.1960281,141.408623 L75.1960281,172.548202 C75.1459743,172.559027 75.0948425,172.564512 75.0426128,172.564512 C65.3393661,172.564512 59.0629637,159.491516 59.0629637,159.491516 C59.0629637,159.491516 48.7867281,134.367118 41.2423178,121.369075 C27.3186963,97.3804771 21.4160959,96.9156251 21.4160959,94.4692799 C21.4160959,87.1527614 28.5141195,81.073425 33.6945676,81.073425 C38.8750156,81.073425 51.0191309,94.0593271 53.1717912,103.047766 C55.3244516,112.036205 50.2350188,126.48858 55.1568212,133.99619 C59.1806825,140.1341 71.01267,141.21758 75.1960281,141.408623 Z" id="Rectangle-6" fill="#8F8E8C"></path>
                <path d="M11.8826562,56.5352076 C11.2151153,65.8184675 8.11078331,76.5277798 7.0860702,80.137654 C10.1188126,75.4419335 16.2801453,63.8731202 26.0842016,52.1300721 C35.8882578,40.387024 44.4179805,37.0929318 46.5736803,31.6807622 C50.632209,21.4912888 25.0634213,0.0271503722 15.9185568,0.0271503722 C6.77369227,0.0271503722 13.2486011,19.0612988 13.2486011,34.986777 C13.2486011,43.2830643 12.550197,47.2519477 11.8826562,56.5352076 Z" id="Oval-9" fill="#BDBDBD"></path>
                <path d="M15.2287707,59.8618716 C17.5651041,56.190964 22.3762021,51.9861195 29.3277791,44.4193343 C36.2793561,36.8525491 41.4949826,33.8359898 43.2526544,29.3578999 C46.4762082,21.1451241 26.1677738,5.60491155 18.9043132,5.60491155 C11.6408526,5.60491155 16.8974643,16.5218703 16.8974643,29.3578999 C16.8974643,42.1939295 15.2287707,42.7560051 15.2287707,59.8618716 Z" id="Oval-8" fill="#8F8E8C"></path>
                <path d="M37.0275784,93.4209064 C45.2796041,84.4033633 52.0771072,88.1367851 55.3936592,86.1023636 C58.7102113,84.0679421 56.8720379,79.4578738 56.8720379,76.1065891 C56.8720379,68.8851449 62.9955998,62.5304241 56.8720385,60.5018953 C50.7484772,58.4733665 34.0750766,70.7675624 37.0275784,93.4209064 Z" id="Oval-14" fill="#C9C9C9"></path>
                <path d="M75.1960281,124.950565 C73.5145461,125.203339 70.3056324,125.64013 68.2089797,125.64013 C62.2523327,125.64013 57.4235163,118.615029 57.4235163,112.994048 C57.4235163,107.373067 62.732693,104.020645 68.6893399,104.020645 C71.2834243,104.020645 74.2446862,103.771938 75.1960281,103.685452 L75.1960281,124.950565 Z" id="Oval-10" fill="#1A191A"></path>
                <ellipse id="Oval-11" fill="#020101" cx="67.8909953" cy="117.680233" rx="3.19905213" ry="3.01744186"></ellipse>
                <path d="M48.2565897,74.1567423 C54.2213864,78.0841235 55.9612292,78.3938755 60.1263539,80.7456694 C59.4768324,78.3938762 58.1425361,71.1572486 55.3630168,68.163718 C51.2375797,63.7206395 47.6002372,61.9719702 41.3974889,63.5989628 C43.33695,68.9986322 42.291793,70.2293612 48.2565897,74.1567423 Z" id="Oval-13" fill="#1A191A"></path>
                <path d="M50.8293839,74.4302326 C52.9887911,74.4302326 54.7393365,72.6289596 54.7393365,70.4069767 C54.7393365,68.1849939 52.9887911,66.3837209 50.8293839,66.3837209 C48.6699767,66.3837209 46.9194313,68.1849939 46.9194313,70.4069767 C46.9194313,72.6289596 48.6699767,74.4302326 50.8293839,74.4302326 Z" id="Oval-16" fill="#6EAEF9"></path>
            </g>
            <g id="Group-5" sketch:type="MSShapeGroup">
                <path d="M75.1960281,17.7745844 L75.1960281,158.428881 L74.3641151,172.321148 C74.3641151,172.321148 70.5755093,174.671624 62.0765845,168.992745 C53.5776596,163.313866 52.1019648,152.558915 30.0369788,140.415245 C7.97199285,128.271576 2.51247063,127.164746 2.51247063,127.164746 C2.51247063,127.164746 -0.584916266,116.401062 1.0057872,102.442893 C2.86394706,86.1378365 5.51009322,83.0769443 7.652358,79.6079774 C14.6537949,68.2705585 21.5223606,45.0689788 21.5223606,36.3078792 C21.5223606,27.5467797 9.853457,0.902542686 16.7754381,0.902542686 C21.1210545,0.902542686 34.625184,9.39888701 54.376084,14.3495284 C66.0971156,17.2874514 72.1840275,17.4480746 75.1960281,17.7745844 Z" id="Rectangle-5" fill="#FFFFFF"></path>
                <path d="M75.1960281,141.408623 L75.1960281,172.548202 C75.1459743,172.559027 75.0948425,172.564512 75.0426128,172.564512 C65.3393661,172.564512 59.0629637,159.491516 59.0629637,159.491516 C59.0629637,159.491516 48.7867281,134.367118 41.2423178,121.369075 C27.3186963,97.3804771 21.4160959,96.9156251 21.4160959,94.4692799 C21.4160959,87.1527614 28.5141195,81.073425 33.6945676,81.073425 C38.8750156,81.073425 51.0191309,94.0593271 53.1717912,103.047766 C55.3244516,112.036205 50.2350188,126.48858 55.1568212,133.99619 C59.1806825,140.1341 71.01267,141.21758 75.1960281,141.408623 Z" id="Rectangle-6" fill="#CBC7C7"></path>
                <path d="M11.8826562,56.5352076 C11.2151153,65.8184675 8.11078331,76.5277798 7.0860702,80.137654 C10.1188126,75.4419335 16.2801453,63.8731202 26.0842016,52.1300721 C35.8882578,40.387024 44.4179805,37.0929318 46.5736803,31.6807622 C50.632209,21.4912888 25.0634213,0.0271503722 15.9185568,0.0271503722 C6.77369227,0.0271503722 13.2486011,19.0612988 13.2486011,34.986777 C13.2486011,43.2830643 12.550197,47.2519477 11.8826562,56.5352076 Z" id="Oval-9" fill="#BDBDBD"></path>
                <path d="M15.2287707,59.8618716 C17.5651041,56.190964 22.3762021,51.9861195 29.3277791,44.4193343 C36.2793561,36.8525491 41.4949826,33.8359898 43.2526544,29.3578999 C46.4762082,21.1451241 26.1677738,5.60491155 18.9043132,5.60491155 C11.6408526,5.60491155 16.8974643,16.5218703 16.8974643,29.3578999 C16.8974643,42.1939295 15.2287707,42.7560051 15.2287707,59.8618716 Z" id="Oval-8" fill="#8F8E8C"></path>
                <path d="M37.0275784,93.4209064 C45.2796041,84.4033633 52.0771072,88.1367851 55.3936592,86.1023636 C58.7102113,84.0679421 56.8720379,79.4578738 56.8720379,76.1065891 C56.8720379,68.8851449 62.9955998,62.5304241 56.8720385,60.5018953 C50.7484772,58.4733665 34.0750766,70.7675624 37.0275784,93.4209064 Z" id="Oval-14" fill="#ECECEC"></path>
                <path d="M75.1819169,124.993249 C73.5004349,125.246023 70.2915212,125.682814 68.1948685,125.682814 C62.2382215,125.682814 57.4094051,118.657712 57.4094051,113.036731 C57.4094051,107.41575 62.7185818,104.063329 68.6752287,104.063329 C71.2693131,104.063329 74.230575,103.814622 75.1819169,103.728135 L75.1819169,124.993249 Z" id="Oval-10" fill="#1A191A"></path>
                <ellipse id="Oval-11" fill="#020101" cx="67.8909953" cy="117.680233" rx="3.19905213" ry="3.01744186"></ellipse>
                <path d="M48.2565897,74.1567423 C54.2213864,78.0841235 55.9612292,78.3938755 60.1263539,80.7456694 C59.4768324,78.3938762 58.1425361,71.1572486 55.3630168,68.163718 C51.2375797,63.7206395 47.6002372,61.9719702 41.3974889,63.5989628 C43.33695,68.9986322 42.291793,70.2293612 48.2565897,74.1567423 Z" id="Oval-13" fill="#1A191A"></path>
                <path d="M50.8293839,74.4302326 C52.9887911,74.4302326 54.7393365,72.6289596 54.7393365,70.4069767 C54.7393365,68.1849939 52.9887911,66.3837209 50.8293839,66.3837209 C48.6699767,66.3837209 46.9194313,68.1849939 46.9194313,70.4069767 C46.9194313,72.6289596 48.6699767,74.4302326 50.8293839,74.4302326 Z" id="Oval-16" fill="#6EAEF9"></path>
            </g>
            <path d="M72.1798848,111.194045 L65.5434454,104.354282 C65.5434454,104.354282 70.7416632,103.499557 74.7814368,103.499557 C78.8212105,103.499557 83.0552476,104.111738 83.0552476,104.111738 L78.9099526,108.58051 L78.9099526,125.300412 L71.8009479,125.300412 L72.1798848,111.194045 Z" id="Rectangle-12" fill="#1A191A" sketch:type="MSShapeGroup"></path>
        </g>
    </g>
</svg>